<?xml version="1.0" encoding="UTF-8" standalone="no"?>
<!-- Created with Inkscape (http://www.inkscape.org/) -->

<svg
   width="261.94162mm"
   height="131.1591mm"
   viewBox="0 0 261.94162 131.1591"
   version="1.1"
   id="svg1"
   xmlns="http://www.w3.org/2000/svg"
   xmlns:svg="http://www.w3.org/2000/svg">
  <defs
     id="defs1" />
  <g
     id="g16">
    <g
       id="layer2"
       transform="translate(8.8986915,-108.77879)">
      <ellipse
         style="fill:#000000;stroke-width:0.264583"
         id="path15"
         cx="96.287437"
         cy="174.35834"
         rx="63.497662"
         ry="65.579552" />
    </g>
    <path
       style="fill:#ff0000;stroke-width:0.264583"
       id="path12"
       d="m 44.179217,202.36637 c 4.367715,-10.28143 8.136279,-20.80898 12.103296,-31.24945 1.139285,-2.9766 2.271778,-5.95581 3.417853,-8.9298 2.162386,-5.61126 4.33243,-11.21961 6.522418,-16.82016 0.578575,-1.47962 3.960315,-10.07514 4.837885,-12.08348 0.502007,-1.14886 1.091994,-2.25722 1.63799,-3.38583 3.21283,-0.40374 -1.317246,0.1117 -1.477912,0.5687 -0.581718,1.65465 0.404265,3.48597 0.518494,5.23618 0.152979,2.34391 0.20888,4.69328 0.282794,7.04102 0.08885,2.82216 0.136985,5.64546 0.205481,8.46819 0.107151,3.11622 0.214304,6.23245 0.321455,9.34867 0.46399,11.84594 2.043065,23.6071 4.681535,35.16032 1.091994,4.78158 1.643788,6.54648 2.907636,11.0177 0.08393,0.37848 1.58651,8.22261 4.756235,4.76408 0.776438,-0.84718 -0.523206,-2.24024 -0.868585,-3.33627 -1.802837,-5.7211 -2.586768,-7.171 -5.04739,-13.05478 -1.313162,-2.61734 -2.434259,-5.34021 -3.939485,-7.85201 -4.063685,-6.78116 -10.882561,-14.99103 -17.458634,-19.51128 -2.943016,-2.02297 -6.048367,-3.83253 -9.276106,-5.36074 -2.124676,-1.00595 -4.466275,-1.46872 -6.699414,-2.20308 -6.778469,-1.41548 -13.509321,-1.06956 -20.229429,0.43838 -2.88264,0.64684 -7.722636,2.10543 -10.464379,3.54486 -1.0811461,0.56761 -1.9926622,1.41192 -2.988993,2.11788 -0.2769711,0.76306 -1.1376607,1.53761 -0.8309136,2.2892 0.4689384,1.149 1.6819543,1.89595 2.7771774,2.47954 8.4501602,4.50267 10.8586732,4.43295 20.6604572,5.50833 12.657574,1.38869 22.974477,1.76812 35.861987,2.49088 51.34151,2.20693 102.74444,2.68086 154.12769,2.57094 23.13931,-0.16607 12.29793,-0.0364 32.52456,-0.35213 0,0 -2.26482,-1.63732 -2.26482,-1.63732 v 0 c -19.81555,0.63176 -9.17914,0.34982 -31.91061,0.79152 -7.51079,0.0738 -15.02125,0.1967 -22.53236,0.22133 -43.93465,0.14411 -87.88557,-0.74674 -131.766468,-2.93511 -12.62548,-0.82851 -23.949178,-1.34603 -36.420655,-2.93614 -3.975611,-0.50688 -7.902121,-1.34503 -11.86072,-1.97106 -2.085911,-0.32988 -4.582702,-0.0261 -5.868104,-2.40045 -0.353879,-0.65369 0.411178,-1.42867 0.616766,-2.143 0.947294,-0.70387 1.804981,-1.54802 2.841881,-2.11162 2.694688,-1.46467 7.445672,-2.92546 10.298721,-3.56363 4.549859,-1.01771 8.670401,-1.52027 13.34399,-1.25027 2.271712,0.13125 4.508677,0.61923 6.763017,0.92884 3.662378,1.23398 7.117583,1.94868 10.239883,4.24645 7.040499,5.18125 13.074134,11.91057 17.560763,19.41073 1.490136,2.49101 2.584815,5.19819 3.877223,7.79729 0.971243,2.39878 2.020776,4.76733 2.913729,7.19635 0.681744,1.85448 1.265788,3.74507 1.807107,5.6453 0.300014,1.05315 0.07046,2.32088 0.71451,3.20651 0.897562,1.23424 2.291641,2.06116 3.638317,2.77909 1.351727,0.72062 -6.68352,-8.02413 -1.672622,-4.28024 -1.392661,-4.56213 -1.955559,-6.19437 -3.137363,-11.09958 -2.778458,-11.5323 -4.399581,-23.30831 -4.827328,-35.16633 -0.441171,-16.12966 -0.120909,-2.57732 -0.34816,-17.72612 -0.03494,-2.32902 -0.05531,-4.65866 -0.137541,-6.98649 -0.0613,-1.73522 0.409051,-3.61262 -0.293002,-5.20066 -0.815335,-1.84429 -2.419493,-3.28944 -4.008945,-4.53033 -0.32361,-0.25264 -0.739879,0.35607 -1.109816,0.53411 -2.223374,5.1621 -4.130739,10.43723 -6.118921,15.69428 -3.807534,10.06769 -2.425785,6.43401 -6.453209,16.85825 -1.148112,2.97168 -2.296133,5.94339 -3.4442,8.91508 -4.033322,10.3566 -7.916934,20.8125 -12.724056,30.84075 z"
       transform="translate(8.8986916,-108.77879)" />
    <path
       style="fill:#ff0000;stroke-width:0.264583"
       id="path13"
       d="m 81.520024,136.15414 c 0.143645,8.10557 1.845968,16.0831 3.517265,23.98222 2.899677,12.78628 6.429457,25.41923 10.20858,37.97019 0.429979,1.35234 0.859959,2.70469 1.289939,4.05703 0,0 3.284077,1.54476 3.284077,1.54476 v 0 c -0.456727,-1.36262 -0.913456,-2.72525 -1.370182,-4.08787 -3.922377,-12.52064 -7.482329,-25.1618 -10.30428,-37.98004 -1.599004,-7.79468 -3.261474,-15.69749 -3.114201,-23.69724 z"
       transform="translate(8.8986916,-108.77879)" />
    <path
       style="fill:#ff0000;stroke-width:0.264583"
       id="path14"
       d="m 81.087176,141.31329 c 5.293643,-1.71624 10.874862,-2.38587 16.390538,-2.92735 7.235336,-0.71031 8.352696,-0.6655 15.587366,-0.99158 5.65398,0.0574 11.46554,-0.51542 17.06753,0.60852 1.14922,0.23056 2.22528,0.74228 3.35854,1.04159 0.29696,0.0784 -0.95649,-0.66124 -0.84093,-0.37666 0.2927,0.72073 0.95685,1.22677 1.43527,1.84015 -0.0708,0.83001 0.0941,1.71546 -0.21247,2.49004 -1.76857,4.46901 -7.3528,6.68654 -11.44337,8.07585 -5.74652,1.95173 -9.58346,2.38906 -15.61636,3.4717 -8.16149,1.1724 -16.394689,1.61136 -24.621169,2.00167 -1.631961,0.0774 -3.266911,0.10184 -4.896485,0.21923 -0.292936,0.0211 -1.121907,0.0642 -0.859152,0.19538 1.995707,0.99658 4.143864,1.65302 6.215795,2.47954 16.830534,0.41087 33.704451,0.67192 50.430511,2.79052 3.05627,0.38712 6.08922,0.94021 9.13382,1.41032 4.15501,0.98631 8.52093,1.67375 12.35402,3.72495 0.21645,0.11583 -0.0853,0.49592 -0.0329,0.73575 0.22089,1.01019 0.95503,1.95617 0.84635,2.98451 -0.44748,4.23413 -4.23265,5.54695 -7.26484,7.78644 -3.14435,1.41887 -6.18802,3.08618 -9.43306,4.25661 -10.88466,3.92593 -19.21776,5.21581 -31.02423,6.66867 -7.14098,0.87874 -14.317819,1.45808 -21.494354,1.97115 -16.473058,1.1777 -28.072669,1.33872 -44.521947,1.81094 -16.846226,0.38382 -33.6960066,0.32442 -50.5443405,0.21356 0,0 2.2904667,1.66417 2.2904667,1.66417 v 0 c 16.6546948,-0.10628 33.3100028,-0.22598 49.9605868,-0.64546 16.089061,-0.49455 28.431005,-0.7323 44.543834,-1.81035 7.247908,-0.48493 14.496184,-1.02384 21.715184,-1.83209 6.24602,-0.69931 12.49931,-1.4568 18.66245,-2.68864 10.64925,-2.1285 13.34121,-3.78855 22.69128,-7.80045 3.30971,-2.31622 7.19897,-3.51206 7.77837,-7.99196 0.53054,-4.10198 -4.30039,-6.04304 -6.94634,-7.4963 -3.32643,-1.827 -8.68024,-2.69655 -12.14567,-3.47406 -3.00766,-0.43629 -6.00533,-0.94807 -9.02298,-1.30885 -16.92272,-2.02325 -33.978438,-2.24416 -50.976388,-3.18936 0.01638,0.64694 -0.158737,1.32795 0.04911,1.94081 0.06326,0.18653 0.309605,-0.28258 0.505095,-0.30668 1.568321,-0.19331 3.151566,-0.23662 4.728472,-0.33841 8.196974,-0.5291 16.410081,-0.93517 24.551271,-2.10044 6.07067,-1.06237 10.01728,-1.50751 15.81657,-3.42524 4.29551,-1.42046 9.97131,-3.64337 11.91306,-8.24466 0.35753,-0.84721 0.23529,-1.82401 0.35293,-2.73603 -0.47021,-0.66309 -0.75903,-1.50326 -1.41064,-1.98927 -1.72702,-1.28812 -3.64344,-2.32332 -5.59507,-3.23601 -2.12209,-0.9924 -5.59071,-1.26956 -7.77144,-1.38843 -4.07047,-0.22189 -8.37341,-0.0367 -12.42808,0.0534 -6.92381,0.32629 -8.72997,0.34142 -15.677565,0.95389 -5.660424,0.499 -11.376601,1.10346 -16.847081,2.71504 z"
       transform="translate(8.8986916,-108.77879)" />
    <g
       id="layer1"
       style="fill:#ff0000"
       transform="translate(8.8986915,-108.77879)" />
  </g>
</svg>
